<svg t="1621690036048" class="icon" viewBox="0 0 1024 1024" version="1.1" xmlns="http://www.w3.org/2000/svg" p-id="2328" width="12" height="12"><path d="M988.16 92.16h-215.04V10.24c0-5.12-5.12-10.24-10.24-10.24h-66.56c-5.12 0-10.24 5.12-10.24 10.24v87.04H348.16V10.24c0-5.12 0-10.24-5.12-10.24H271.36c-5.12 0-15.36 5.12-15.36 10.24v87.04H40.96c-20.48-5.12-40.96 10.24-40.96 40.96v855.04c0 15.36 20.48 30.72 40.96 30.72h936.96c30.72 0 40.96-15.36 40.96-40.96V133.12c5.12-25.6-10.24-40.96-30.72-40.96z m-51.2 839.68H92.16V450.56h834.56v491.52h10.24v-10.24zM92.16 358.4V189.44H256v61.44s5.12 5.12 10.24 5.12h71.68c5.12 0 10.24-5.12 10.24-10.24V184.32h327.68v61.44c0 5.12 5.12 10.24 10.24 10.24h66.56s5.12-5.12 5.12-10.24V184.32H921.6v168.96H92.16V358.4z" p-id="2329" fill="#1296db"></path></svg>